<?xml version="1.0" encoding="UTF-8"?>
<svg width="1200pt" height="1200pt" version="1.1" viewBox="0 0 1200 1200"
    xmlns="http://www.w3.org/2000/svg">
    <path
        d="m934.8 412.8h-147.6v-148.8c0-50.398-40.801-92.398-92.398-92.398h-412.8c-50.398 0-92.398 40.801-92.398 92.398v414c0 50.398 40.801 92.398 92.398 92.398h147.6v147.6c0 50.398 40.801 92.398 92.398 92.398h414c50.398 0 92.398-40.801 92.398-92.398v-414c-1.1992-50.398-42-91.199-93.598-91.199zm-457.2 300v-48l261.6-178.8v49.199l-259.2 175.2c-1.1992 1.2031-1.1992 1.2031-2.3984 2.4023zm0-91.199v-50.398l165.6-110.4h69.602c-0.003907-0.003907-235.2 160.8-235.2 160.8zm0-94.801v-22.801c0-24 20.398-44.398 44.398-44.398h56.398c0 1.1992-100.8 67.199-100.8 67.199zm261.6 51.598v50.398l-132 90c-1.1992 1.1992-2.3984 1.1992-2.3984 2.3984l-76.801 0.003907zm0 94.801v4.8008c0 24-20.398 44.398-44.398 44.398h-27.602l72-49.199zm-458.4 49.199c-24 0-44.398-20.398-44.398-44.398l-0.003906-414c0-24 19.199-44.398 44.398-44.398h414c24 0 44.398 19.199 44.398 44.398v147.6h-217.2c-50.398 0-92.398 40.801-92.398 92.398v217.2zm698.4 195.6c0 24-20.398 44.398-44.398 44.398h-412.8c-24 0-44.398-20.398-44.398-44.398v-147.6h217.2c50.398 0 92.398-40.801 92.398-92.398v-217.2h147.6c24 0 44.398 20.398 44.398 44.398z" />
</svg>
